<svg xmlns="http://www.w3.org/2000/svg" xmlns:xlink="http://www.w3.org/1999/xlink" width="1080" zoomAndPan="magnify" viewBox="0 0 810 809.999993" height="1080" preserveAspectRatio="xMidYMid meet" version="1.0"><defs><g/><clipPath id="983b9e9969"><path d="M 405 0 C 181.324219 0 0 181.324219 0 405 C 0 628.675781 181.324219 810 405 810 C 628.675781 810 810 628.675781 810 405 C 810 181.324219 628.675781 0 405 0 " clip-rule="nonzero"/></clipPath></defs><rect x="-81" width="972" fill="#ffffff" y="-80.999999" height="971.999992" fill-opacity="1"/><rect x="-81" width="972" fill="#ffffff" y="-80.999999" height="971.999992" fill-opacity="1"/><rect x="-81" width="972" fill="#d9d9d9" y="-80.999999" height="971.999992" fill-opacity="1"/><g clip-path="url(#983b9e9969)"><rect x="-81" width="972" fill="#38b6ff" y="-80.999999" height="971.999992" fill-opacity="1"/></g><g fill="#ffffff" fill-opacity="1"><g transform="translate(215.613583, 418.053816)"><g><path d="M 29.253906 76.851562 L 126.429688 76.851562 C 180.96875 76.851562 225.589844 32.226562 225.589844 -22.3125 L 225.589844 -51.5625 C 225.589844 -101.144531 188.40625 -142.792969 140.808594 -149.734375 C 188.40625 -156.675781 225.589844 -197.828125 225.589844 -247.902344 C 225.589844 -302.441406 180.96875 -347.0625 126.429688 -347.0625 L 43.136719 -347.0625 L 43.136719 -346.566406 L 9.917969 -346.566406 L 9.917969 -344.585938 C 14.378906 -344.585938 18.839844 -343.097656 22.3125 -339.625 C 25.285156 -336.15625 27.269531 -331.695312 27.269531 -327.230469 L 27.269531 57.019531 C 27.269531 61.480469 25.285156 65.941406 22.3125 69.414062 C 18.839844 72.882812 14.378906 74.371094 9.917969 74.371094 L 9.917969 76.851562 Z M 52.554688 74.371094 L 52.554688 -148.742188 L 126.429688 -148.742188 C 167.085938 -148.742188 199.808594 -105.109375 199.808594 -51.5625 L 199.808594 -22.3125 C 199.808594 31.234375 167.085938 74.371094 126.429688 74.371094 Z M 199.808594 -247.902344 C 199.808594 -194.355469 167.085938 -150.726562 126.429688 -150.726562 L 52.554688 -150.726562 L 52.554688 -344.585938 L 126.429688 -344.585938 C 167.085938 -344.585938 199.808594 -301.449219 199.808594 -247.902344 Z M 199.808594 -247.902344 "/></g></g></g><g fill="#ffffff" fill-opacity="1"><g transform="translate(381.500178, 680.267264)"><g><path d="M 202.160156 -340.996094 L 202.160156 -339.535156 C 202.160156 -333.203125 199.726562 -327.84375 195.339844 -323.457031 C 191.445312 -319.074219 185.597656 -316.640625 179.265625 -316.640625 C 174.394531 -316.640625 170.011719 -318.101562 166.113281 -320.535156 C 165.625 -321.023438 165.625 -321.023438 165.140625 -321.511719 C 165.140625 -321.511719 164.652344 -321.511719 164.652344 -321.996094 C 147.601562 -334.175781 127.628906 -340.996094 106.683594 -340.996094 C 94.015625 -340.996094 81.351562 -338.074219 69.660156 -333.203125 C 57.96875 -328.328125 47.253906 -321.511719 37.996094 -312.253906 C 19.484375 -293.742188 9.742188 -269.386719 9.742188 -243.566406 C 9.742188 -217.261719 19.484375 -192.90625 37.996094 -174.394531 L 157.832031 -73.070312 C 195.339844 -36.046875 202.648438 17.050781 174.394531 45.304688 C 165.625 54.070312 154.910156 61.378906 143.707031 65.761719 C 132.5 70.636719 120.324219 73.070312 107.65625 73.070312 L 106.683594 73.070312 C 86.222656 73.070312 66.738281 66.738281 50.664062 55.046875 C 50.175781 54.558594 49.6875 54.070312 48.714844 53.585938 C 45.789062 51.148438 42.382812 48.226562 39.457031 45.304688 C 21.433594 27.28125 11.691406 3.410156 11.691406 -21.921875 L 9.742188 -21.921875 L 9.742188 75.507812 L 11.691406 75.507812 L 11.691406 74.53125 C 11.691406 67.710938 14.128906 62.351562 18.511719 57.96875 C 22.410156 54.070312 28.253906 51.148438 34.585938 51.148438 C 39.457031 51.148438 43.84375 52.609375 47.738281 55.535156 C 48.226562 55.535156 48.714844 56.019531 49.199219 56.507812 C 66.25 68.6875 86.222656 75.507812 106.683594 75.507812 L 107.65625 75.507812 C 133.476562 75.019531 157.34375 64.789062 175.855469 46.765625 C 213.851562 8.769531 213.851562 -53.097656 175.855469 -91.09375 L 55.535156 -192.417969 C 37.507812 -210.441406 25.816406 -232.363281 22.894531 -254.773438 C 19.972656 -277.179688 25.816406 -297.152344 39.457031 -310.792969 C 57.480469 -328.816406 81.351562 -338.558594 106.683594 -338.558594 C 116.914062 -338.558594 127.144531 -337.097656 136.398438 -334.175781 C 146.140625 -330.765625 154.910156 -326.382812 163.191406 -320.535156 C 163.679688 -320.046875 164.164062 -319.5625 164.652344 -319.074219 C 168.0625 -316.640625 171.472656 -313.714844 174.394531 -310.792969 C 192.417969 -292.769531 202.160156 -268.898438 202.160156 -243.566406 L 202.160156 -243.082031 C 202.160156 -220.1875 193.878906 -198.75 179.265625 -181.214844 C 179.265625 -182.1875 179.265625 -182.675781 179.265625 -183.164062 C 179.265625 -186.574219 178.292969 -189.984375 175.855469 -192.417969 C 173.421875 -194.367188 170.011719 -195.828125 167.085938 -195.828125 C 163.679688 -195.828125 160.269531 -194.367188 157.832031 -192.417969 C 155.882812 -189.984375 154.421875 -186.574219 154.421875 -183.164062 C 154.421875 -180.242188 155.882812 -176.832031 157.832031 -174.394531 C 160.269531 -171.960938 163.679688 -170.984375 167.085938 -170.984375 C 170.011719 -170.984375 173.421875 -171.960938 175.855469 -174.394531 C 194.367188 -192.90625 204.109375 -217.261719 204.109375 -243.566406 L 204.109375 -340.996094 Z M 202.160156 -340.996094 "/></g></g></g></svg>